<?xml version="1.0" encoding="utf-8"?>
<!-- Generator: Adobe Illustrator 15.0.2, SVG Export Plug-In . SVG Version: 6.00 Build 0)  -->
<!DOCTYPE svg PUBLIC "-//W3C//DTD SVG 1.1//EN" "http://www.w3.org/Graphics/SVG/1.1/DTD/svg11.dtd">
<svg version="1.1" id="Layer_1" xmlns="http://www.w3.org/2000/svg" xmlns:xlink="http://www.w3.org/1999/xlink" x="0px" y="0px"
	 width="144px" height="144px" viewBox="0 0 144 144" enable-background="new 0 0 144 144" xml:space="preserve">
<g>
	
		<linearGradient id="SVGID_1_" gradientUnits="userSpaceOnUse" x1="322.5332" y1="-286.0645" x2="313.7887" y2="-270.6255" gradientTransform="matrix(1 0 0 -1 -234 -179)">
		<stop  offset="0" style="stop-color:#F17B5F"/>
		<stop  offset="0" style="stop-color:#F17B5F"/>
		<stop  offset="0.41" style="stop-color:#D23D33"/>
		<stop  offset="0.99" style="stop-color:#951C27"/>
		<stop  offset="1" style="stop-color:#951C27"/>
	</linearGradient>
	<polygon fill="url(#SVGID_1_)" points="60.564,103.307 91.206,101.227 93.566,70.329 84.229,89.254 	"/>
	
		<linearGradient id="SVGID_2_" gradientUnits="userSpaceOnUse" x1="326.8887" y1="-273.0967" x2="315.6226" y2="-265.5364" gradientTransform="matrix(1 0 0 -1 -234 -179)">
		<stop  offset="0" style="stop-color:#882E28"/>
		<stop  offset="0" style="stop-color:#882E28"/>
		<stop  offset="0.99" style="stop-color:#912D2A"/>
		<stop  offset="1" style="stop-color:#912D2A"/>
	</linearGradient>
	<polygon fill="url(#SVGID_2_)" points="81.451,92.501 91.256,101.205 88.622,83.027 	"/>
	
		<linearGradient id="SVGID_3_" gradientUnits="userSpaceOnUse" x1="317.8711" y1="-286.5342" x2="306.6014" y2="-278.9716" gradientTransform="matrix(1 0 0 -1 -234 -179)">
		<stop  offset="0" style="stop-color:#882E28"/>
		<stop  offset="0" style="stop-color:#882E28"/>
		<stop  offset="0.99" style="stop-color:#912D2A"/>
		<stop  offset="1" style="stop-color:#912D2A"/>
	</linearGradient>
	<polygon fill="url(#SVGID_3_)" points="60.666,103.268 91.293,101.205 71.997,99.691 	"/>
	
		<linearGradient id="SVGID_4_" gradientUnits="userSpaceOnUse" x1="294.2119" y1="-267.6245" x2="295.9588" y2="-278.9773" gradientTransform="matrix(1 0 0 -1 -234 -179)">
		<stop  offset="0" style="stop-color:#FFFFFF"/>
		<stop  offset="0" style="stop-color:#FFFFFF"/>
		<stop  offset="0.23" style="stop-color:#DA765C"/>
		<stop  offset="0.46" style="stop-color:#CF4B34"/>
		<stop  offset="0.99" style="stop-color:#920E1A"/>
		<stop  offset="1" style="stop-color:#920E1A"/>
	</linearGradient>
	<polygon fill="url(#SVGID_4_)" points="54.907,89.748 60.692,103.271 65.513,87.48 	"/>
	
		<linearGradient id="SVGID_5_" gradientUnits="userSpaceOnUse" x1="306.2266" y1="-257.0205" x2="306.8702" y2="-268.6078" gradientTransform="matrix(1 0 0 -1 -234 -179)">
		<stop  offset="0" style="stop-color:#FFFFFF"/>
		<stop  offset="0" style="stop-color:#FFFFFF"/>
		<stop  offset="0.23" style="stop-color:#D67559"/>
		<stop  offset="0.56" style="stop-color:#B33028"/>
		<stop  offset="0.99" style="stop-color:#A02325"/>
		<stop  offset="1" style="stop-color:#A02325"/>
	</linearGradient>
	<polygon fill="url(#SVGID_5_)" points="64.318,87.077 81.445,92.555 77.014,75.182 	"/>
	
		<linearGradient id="SVGID_6_" gradientUnits="userSpaceOnUse" x1="316.8926" y1="-246.3115" x2="318.8196" y2="-254.6162" gradientTransform="matrix(1 0 0 -1 -234 -179)">
		<stop  offset="0" style="stop-color:#FFFFFF"/>
		<stop  offset="0" style="stop-color:#FFFFFF"/>
		<stop  offset="0.18" style="stop-color:#D56B51"/>
		<stop  offset="0.4" style="stop-color:#BC392A"/>
		<stop  offset="0.99" style="stop-color:#A02325"/>
		<stop  offset="1" style="stop-color:#A02325"/>
	</linearGradient>
	<polygon fill="url(#SVGID_6_)" points="77.223,76.428 92.561,75.425 80.562,65.626 	"/>
	
		<linearGradient id="SVGID_7_" gradientUnits="userSpaceOnUse" x1="311.0059" y1="-243.3877" x2="319.3102" y2="-239.2355" gradientTransform="matrix(1 0 0 -1 -234 -179)">
		<stop  offset="0" style="stop-color:#FFFFFF"/>
		<stop  offset="0" style="stop-color:#FFFFFF"/>
		<stop  offset="0.54" style="stop-color:#BC342B"/>
		<stop  offset="0.99" style="stop-color:#B21B24"/>
		<stop  offset="1" style="stop-color:#B21B24"/>
	</linearGradient>
	<polygon fill="url(#SVGID_7_)" points="75.439,62.081 86.948,62.132 79.895,66.032 	"/>
	
		<linearGradient id="SVGID_8_" gradientUnits="userSpaceOnUse" x1="286.9326" y1="-264.7285" x2="287.6161" y2="-271.571" gradientTransform="matrix(1 0 0 -1 -234 -179)">
		<stop  offset="0" style="stop-color:#FFFFFF"/>
		<stop  offset="0" style="stop-color:#FFFFFF"/>
		<stop  offset="0.31" style="stop-color:#D05039"/>
		<stop  offset="0.99" style="stop-color:#B33027"/>
		<stop  offset="1" style="stop-color:#B33027"/>
	</linearGradient>
	<polygon fill="url(#SVGID_8_)" points="52.681,83.23 52.116,95.045 55.071,89.65 	"/>
	<path fill="#FFFFFF" d="M52.522,83.027l2.406,6.824l10.455-2.348l11.936-11.089l3.367-10.7l-5.304-3.744l-9.016,3.375
		c-2.842,2.642-8.355,7.869-8.554,7.968C57.616,73.416,54.172,79.924,52.522,83.027z"/>
	
		<linearGradient id="SVGID_9_" gradientUnits="userSpaceOnUse" x1="282.2324" y1="-273.4214" x2="314.3625" y2="-240.3827" gradientTransform="matrix(1 0 0 -1 -234 -179)">
		<stop  offset="0" style="stop-color:#AD0D1D"/>
		<stop  offset="0" style="stop-color:#AD0D1D"/>
		<stop  offset="0.07" style="stop-color:#FFFFFF"/>
		<stop  offset="0.17" style="stop-color:#FFFFFF"/>
		<stop  offset="0.27" style="stop-color:#BB4433"/>
		<stop  offset="0.33" style="stop-color:#852728"/>
		<stop  offset="0.46" style="stop-color:#9E3026"/>
		<stop  offset="0.72" style="stop-color:#A92C24"/>
		<stop  offset="0.99" style="stop-color:#D43A21"/>
		<stop  offset="1" style="stop-color:#D43A21"/>
	</linearGradient>
	<path fill="url(#SVGID_9_)" d="M60.97,70.768c6.157-6.104,14.094-9.71,17.141-6.638c3.041,3.073-0.187,10.543-6.342,16.644
		c-6.156,6.102-13.996,9.908-17.04,6.836C51.683,84.54,54.813,76.872,60.97,70.768z"/>
	
		<linearGradient id="SVGID_10_" gradientUnits="userSpaceOnUse" x1="306.8438" y1="-276.752" x2="297.167" y2="-274.3636" gradientTransform="matrix(1 0 0 -1 -234 -179)">
		<stop  offset="0" style="stop-color:#8D2628"/>
		<stop  offset="0" style="stop-color:#8D2628"/>
		<stop  offset="0.54" style="stop-color:#952526"/>
		<stop  offset="0.99" style="stop-color:#A1232D"/>
		<stop  offset="1" style="stop-color:#A1232D"/>
	</linearGradient>
	<path fill="url(#SVGID_10_)" d="M60.692,103.266l4.784-15.844l15.883,5.102C75.613,97.91,69.228,102.463,60.692,103.266z"/>
	
		<linearGradient id="SVGID_11_" gradientUnits="userSpaceOnUse" x1="323.4658" y1="-265.1387" x2="314.868" y2="-257.4326" gradientTransform="matrix(1 0 0 -1 -234 -179)">
		<stop  offset="0" style="stop-color:#7F2C2A"/>
		<stop  offset="0" style="stop-color:#7F2C2A"/>
		<stop  offset="0.99" style="stop-color:#982525"/>
		<stop  offset="1" style="stop-color:#982525"/>
	</linearGradient>
	<path fill="url(#SVGID_11_)" d="M77.338,76.384l4.076,16.151c4.799-5.044,9.104-10.467,11.213-17.174L77.338,76.384z"/>
	
		<linearGradient id="SVGID_12_" gradientUnits="userSpaceOnUse" x1="326.624" y1="-250.9995" x2="322.3418" y2="-246.4213" gradientTransform="matrix(1 0 0 -1 -234 -179)">
		<stop  offset="0" style="stop-color:#7A2E2A"/>
		<stop  offset="0" style="stop-color:#7A2E2A"/>
		<stop  offset="0.99" style="stop-color:#992D2B"/>
		<stop  offset="1" style="stop-color:#992D2B"/>
	</linearGradient>
	<path fill="url(#SVGID_12_)" d="M92.584,75.441c1.632-4.923,2.01-11.989-5.686-13.301l-6.312,3.489L92.584,75.441z"/>
	<path fill="#982C28" d="M52.116,94.973c0.226,8.131,6.09,8.248,8.587,8.321l-5.769-13.476L52.116,94.973z"/>
	
		<radialGradient id="SVGID_13_" cx="316.2061" cy="-257.5801" r="10.5344" gradientTransform="matrix(1 0 0 -1 -234 -179)" gradientUnits="userSpaceOnUse">
		<stop  offset="0" style="stop-color:#A02325"/>
		<stop  offset="0" style="stop-color:#A02325"/>
		<stop  offset="0.99" style="stop-color:#7F2928"/>
		<stop  offset="1" style="stop-color:#7F2928"/>
	</radialGradient>
	<path fill="url(#SVGID_13_)" d="M77.359,76.407c3.688,2.269,11.115,6.817,11.269,6.899c0.233,0.133,3.199-5.006,3.874-7.908
		L77.359,76.407z"/>
	
		<radialGradient id="SVGID_14_" cx="301.6152" cy="-271.4619" r="14.0052" gradientTransform="matrix(1 0 0 -1 -234 -179)" gradientUnits="userSpaceOnUse">
		<stop  offset="0" style="stop-color:#9E2426"/>
		<stop  offset="0" style="stop-color:#9E2426"/>
		<stop  offset="0.99" style="stop-color:#822A2A"/>
		<stop  offset="1" style="stop-color:#822A2A"/>
	</radialGradient>
	<path fill="url(#SVGID_14_)" d="M65.469,87.422l6.395,12.335c3.781-2.049,6.742-4.548,9.451-7.222L65.469,87.422z"/>
	
		<linearGradient id="SVGID_15_" gradientUnits="userSpaceOnUse" x1="291.6953" y1="-282.2539" x2="288.2055" y2="-270.4143" gradientTransform="matrix(1 0 0 -1 -234 -179)">
		<stop  offset="0" style="stop-color:#87372C"/>
		<stop  offset="0" style="stop-color:#87372C"/>
		<stop  offset="0.43" style="stop-color:#98292A"/>
		<stop  offset="0.99" style="stop-color:#A9272A"/>
		<stop  offset="1" style="stop-color:#A9272A"/>
	</linearGradient>
	<path fill="url(#SVGID_15_)" d="M54.909,89.835l-0.906,10.786c1.709,2.335,4.06,2.538,6.527,2.355
		C58.745,98.538,55.18,89.656,54.909,89.835z"/>
	
		<linearGradient id="SVGID_16_" gradientUnits="userSpaceOnUse" x1="318.4688" y1="-243.02" x2="326.2924" y2="-246.4735" gradientTransform="matrix(1 0 0 -1 -234 -179)">
		<stop  offset="0" style="stop-color:#AA2724"/>
		<stop  offset="0" style="stop-color:#AA2724"/>
		<stop  offset="0.44" style="stop-color:#90292A"/>
		<stop  offset="0.99" style="stop-color:#7A352D"/>
		<stop  offset="1" style="stop-color:#7A352D"/>
	</linearGradient>
	<path fill="url(#SVGID_16_)" d="M80.548,65.656l12.7,1.782c-0.68-2.873-2.76-4.726-6.309-5.306L80.548,65.656z"/>
</g>
<g>
	<path d="M109.161,9.754c4.455,4.432,8.139,9.646,12.513,14.164c-6.92,6.148-12.27,18.245-7.638,29.975
		c1.698,4.309,4.009,8.275,5.687,12.682c1.688,4.436,3.244,9.159,4.063,14.327c3.846,24.271-12.522,36.787-28.111,44.138
		c-6.886,3.246-14.42,6.795-20.475,11.528c-0.275,0.216-2.119,2.136-2.276,2.144c-0.395,0.017-2.138-1.944-2.599-2.308
		c-6.377-4.979-14.479-8.512-21.937-12.188c-12.183-6.006-24.941-15.158-26.811-31.785c-1.381-12.285,3.255-23.347,6.987-31.787
		c2.049-4.633,4.528-9.011,4.875-14.657c0.639-10.425-4.459-16.957-9.262-21.74c4.017-4.987,8.015-9.994,12.512-14.493
		c9.517,7.455,28.689,3.144,36.235-2.635C80.859,13.26,99.616,16.969,109.161,9.754z M81.375,18.977
		c-3.12-1.083-5.758-3.095-8.613-3.788c-0.347-0.084-0.492,0.248-0.65,0.329c-5.075,2.603-11.501,5.291-18.524,5.27
		c-5.493-0.016-10.559-1.389-15.761-2.964c-1.849,1.913-3.355,4.175-5.2,6.093c6.741,6.921,9.071,20.104,5.037,31.621
		c-3.388,9.671-9.424,19.01-9.424,31.621c0,13.08,7.195,20.317,14.949,25.858c9.167,6.547,21.115,10.549,29.575,17.455
		c8-6.621,18.854-9.988,27.948-15.975c8.45-5.562,16.929-13.562,16.897-27.34c-0.014-7.727-2.543-14.934-5.037-21.081
		c-2.625-6.47-6.002-12.266-6.498-19.763c-0.645-9.741,2.43-16.582,6.988-22.398c-1.84-1.979-3.276-4.366-5.361-6.093
		C99.504,20.838,89.664,21.853,81.375,18.977z"/>
	<line fill="none" stroke="#000000" stroke-width="6" stroke-miterlimit="10" x1="36.359" y1="44.37" x2="108.505" y2="44.37"/>
</g>
</svg>
